{
  "asset": {
    "version": "2.0",
    "generator": "THREE.GLTFExporter r171"
  },
  "scenes": [
    {
      "name": "Scene",
      "nodes": [
        25
      ]
    }
  ],
  "scene": 0,
  "nodes": [
    {
      "name": "nodes0",
      "extras": {
        "name": "nodes[0]"
      },
      "mesh": 0
    },
    {
      "name": "nodes1",
      "extras": {
        "name": "nodes[1]"
      },
      "mesh": 1
    },
    {
      "name": "nodes2",
      "extras": {
        "name": "nodes[2]"
      },
      "mesh": 2
    },
    {
      "matrix": [
        1,
        0,
        0,
        0,
        0,
        1,
        0,
        0,
        0,
        0,
        1,
        0,
        0,
        0,
        -0.7550944843007379,
        1
      ],
      "name": "nodes3",
      "extras": {
        "name": "nodes[3]"
      },
      "mesh": 3
    },
    {
      "name": "Ram",
      "extras": {
        "name": "Ram"
      },
      "children": [
        0,
        1,
        2,
        3
      ]
    },
    {
      "name": "QuadcopterProp_Default<As_Machined>_node",
      "extras": {
        "name": "QuadcopterProp_Default<As Machined>_node"
      },
      "mesh": 4
    },
    {
      "name": "QuadcopterProp_Default<As_Machined>",
      "extras": {
        "name": "QuadcopterProp_Default<As Machined>"
      },
      "children": [
        5
      ]
    },
    {
      "name": "QuadcopterProp_Default<As_Machined>_node_1",
      "extras": {
        "name": "QuadcopterProp_Default<As Machined>_node_1"
      },
      "mesh": 5
    },
    {
      "name": "QuadcopterProp_Default<As_Machined>_node_0",
      "extras": {
        "name": "QuadcopterProp_Default<As Machined>_node_0"
      },
      "children": [
        7
      ]
    },
    {
      "name": "QuadcopterProp_Default<As_Machined>_node_3",
      "extras": {
        "name": "QuadcopterProp_Default<As Machined>_node_3"
      },
      "mesh": 6
    },
    {
      "name": "QuadcopterProp_Default<As_Machined>_node_2",
      "extras": {
        "name": "QuadcopterProp_Default<As Machined>_node_2"
      },
      "children": [
        9
      ]
    },
    {
      "name": "QuadcopterProp_Default<As_Machined>_node_5",
      "extras": {
        "name": "QuadcopterProp_Default<As Machined>_node_5"
      },
      "mesh": 7
    },
    {
      "name": "QuadcopterProp_Default<As_Machined>_node_4",
      "extras": {
        "name": "QuadcopterProp_Default<As Machined>_node_4"
      },
      "children": [
        11
      ]
    },
    {
      "name": "QuadcopterProp_Default<As_Machined>_node_7",
      "extras": {
        "name": "QuadcopterProp_Default<As Machined>_node_7"
      },
      "mesh": 8
    },
    {
      "name": "QuadcopterProp_Default<As_Machined>_node_6",
      "extras": {
        "name": "QuadcopterProp_Default<As Machined>_node_6"
      },
      "children": [
        13
      ]
    },
    {
      "name": "QuadcopterProp_Default<As_Machined>_node_9",
      "extras": {
        "name": "QuadcopterProp_Default<As Machined>_node_9"
      },
      "mesh": 9
    },
    {
      "name": "QuadcopterProp_Default<As_Machined>_node_8",
      "extras": {
        "name": "QuadcopterProp_Default<As Machined>_node_8"
      },
      "children": [
        15
      ]
    },
    {
      "name": "Prop_1_node",
      "extras": {
        "name": "Prop 1_node"
      },
      "mesh": 10
    },
    {
      "name": "Prop_1",
      "extras": {
        "name": "Prop 1"
      },
      "children": [
        17
      ]
    },
    {
      "name": "Prop_1_node_1",
      "extras": {
        "name": "Prop 1_node_1"
      },
      "mesh": 11
    },
    {
      "name": "Prop_1_node_0",
      "extras": {
        "name": "Prop 1_node_0"
      },
      "children": [
        19
      ]
    },
    {
      "name": "Prop_1_node_3",
      "extras": {
        "name": "Prop 1_node_3"
      },
      "mesh": 12
    },
    {
      "name": "Prop_1_node_2",
      "extras": {
        "name": "Prop 1_node_2"
      },
      "children": [
        21
      ]
    },
    {
      "name": "Final_node",
      "extras": {
        "name": "Final_node"
      },
      "children": [
        4,
        6,
        8,
        10,
        12,
        14,
        16,
        18,
        20,
        22
      ]
    },
    {
      "name": "Final",
      "extras": {
        "name": "Final"
      },
      "children": [
        23
      ]
    },
    {
      "matrix": [
        0.05,
        0,
        0,
        0,
        0,
        0.05,
        0,
        0,
        0,
        0,
        0.05,
        0,
        1.6656178359344271,
        1.068435124300819,
        -0.6234906395068198,
        1
      ],
      "name": "Final.gltf",
      "children": [
        24
      ]
    }
  ],
  "bufferViews": [
    {
      "buffer": 0,
      "byteOffset": 0,
      "byteLength": 288,
      "target": 34962,
      "byteStride": 12
    },
    {
      "buffer": 0,
      "byteOffset": 288,
      "byteLength": 288,
      "target": 34962,
      "byteStride": 12
    },
    {
      "buffer": 0,
      "byteOffset": 576,
      "byteLength": 144,
      "target": 34963
    },
    {
      "buffer": 0,
      "byteOffset": 720,
      "byteLength": 288,
      "target": 34962,
      "byteStride": 12
    },
    {
      "buffer": 0,
      "byteOffset": 1008,
      "byteLength": 288,
      "target": 34962,
      "byteStride": 12
    },
    {
      "buffer": 0,
      "byteOffset": 1296,
      "byteLength": 144,
      "target": 34963
    },
    {
      "buffer": 0,
      "byteOffset": 1440,
      "byteLength": 26784,
      "target": 34962,
      "byteStride": 12
    },
    {
      "buffer": 0,
      "byteOffset": 28224,
      "byteLength": 26784,
      "target": 34962,
      "byteStride": 12
    },
    {
      "buffer": 0,
      "byteOffset": 55008,
      "byteLength": 32832,
      "target": 34963
    },
    {
      "buffer": 0,
      "byteOffset": 87840,
      "byteLength": 193872,
      "target": 34962,
      "byteStride": 12
    },
    {
      "buffer": 0,
      "byteOffset": 281712,
      "byteLength": 193872,
      "target": 34962,
      "byteStride": 12
    },
    {
      "buffer": 0,
      "byteOffset": 475584,
      "byteLength": 238848,
      "target": 34963
    },
    {
      "buffer": 0,
      "byteOffset": 714432,
      "byteLength": 20460,
      "target": 34962,
      "byteStride": 12
    },
    {
      "buffer": 0,
      "byteOffset": 734892,
      "byteLength": 20460,
      "target": 34962,
      "byteStride": 12
    },
    {
      "buffer": 0,
      "byteOffset": 755352,
      "byteLength": 25392,
      "target": 34963
    },
    {
      "buffer": 0,
      "byteOffset": 780744,
      "byteLength": 20460,
      "target": 34962,
      "byteStride": 12
    },
    {
      "buffer": 0,
      "byteOffset": 801204,
      "byteLength": 20460,
      "target": 34962,
      "byteStride": 12
    },
    {
      "buffer": 0,
      "byteOffset": 821664,
      "byteLength": 25392,
      "target": 34963
    },
    {
      "buffer": 0,
      "byteOffset": 847056,
      "byteLength": 20460,
      "target": 34962,
      "byteStride": 12
    },
    {
      "buffer": 0,
      "byteOffset": 867516,
      "byteLength": 20460,
      "target": 34962,
      "byteStride": 12
    },
    {
      "buffer": 0,
      "byteOffset": 887976,
      "byteLength": 25392,
      "target": 34963
    },
    {
      "buffer": 0,
      "byteOffset": 913368,
      "byteLength": 20460,
      "target": 34962,
      "byteStride": 12
    },
    {
      "buffer": 0,
      "byteOffset": 933828,
      "byteLength": 20460,
      "target": 34962,
      "byteStride": 12
    },
    {
      "buffer": 0,
      "byteOffset": 954288,
      "byteLength": 25392,
      "target": 34963
    },
    {
      "buffer": 0,
      "byteOffset": 979680,
      "byteLength": 20460,
      "target": 34962,
      "byteStride": 12
    },
    {
      "buffer": 0,
      "byteOffset": 1000140,
      "byteLength": 20460,
      "target": 34962,
      "byteStride": 12
    },
    {
      "buffer": 0,
      "byteOffset": 1020600,
      "byteLength": 25392,
      "target": 34963
    },
    {
      "buffer": 0,
      "byteOffset": 1045992,
      "byteLength": 20460,
      "target": 34962,
      "byteStride": 12
    },
    {
      "buffer": 0,
      "byteOffset": 1066452,
      "byteLength": 20460,
      "target": 34962,
      "byteStride": 12
    },
    {
      "buffer": 0,
      "byteOffset": 1086912,
      "byteLength": 25392,
      "target": 34963
    },
    {
      "buffer": 0,
      "byteOffset": 1112304,
      "byteLength": 28536,
      "target": 34962,
      "byteStride": 12
    },
    {
      "buffer": 0,
      "byteOffset": 1140840,
      "byteLength": 28536,
      "target": 34962,
      "byteStride": 12
    },
    {
      "buffer": 0,
      "byteOffset": 1169376,
      "byteLength": 33144,
      "target": 34963
    },
    {
      "buffer": 0,
      "byteOffset": 1202520,
      "byteLength": 28536,
      "target": 34962,
      "byteStride": 12
    },
    {
      "buffer": 0,
      "byteOffset": 1231056,
      "byteLength": 28536,
      "target": 34962,
      "byteStride": 12
    },
    {
      "buffer": 0,
      "byteOffset": 1259592,
      "byteLength": 33144,
      "target": 34963
    },
    {
      "buffer": 0,
      "byteOffset": 1292736,
      "byteLength": 28536,
      "target": 34962,
      "byteStride": 12
    },
    {
      "buffer": 0,
      "byteOffset": 1321272,
      "byteLength": 28536,
      "target": 34962,
      "byteStride": 12
    },
    {
      "buffer": 0,
      "byteOffset": 1349808,
      "byteLength": 33144,
      "target": 34963
    }
  ],
  "buffers": [
    {
      "byteLength": 1382952,
      "uri": "data:application/octet-stream;base64,"
    }
  ],
  "accessors": [
    {
      "bufferView": 0,
      "componentType": 5126,
      "count": 24,
      "max": [
        -48.45185089111328,
        11.18122386932373,
        43.40882110595703
      ],
      "min": [
        -77.21381378173828,
        0.47372186183929443,
        42.40882110595703
      ],
      "type": "VEC3"
    },
    {
      "bufferView": 1,
      "componentType": 5126,
      "count": 24,
      "max": [
        1,
        1,
        1
      ],
      "min": [
        -1,
        -1,
        -1
      ],
      "type": "VEC3"
    },
    {
      "bufferView": 2,
      "componentType": 5125,
      "count": 36,
      "max": [
        23
      ],
      "min": [
        0
      ],
      "type": "SCALAR"
    },
    {
      "bufferView": 3,
      "componentType": 5126,
      "count": 24,
      "max": [
        11.411149024963379,
        11.18122386932373,
        43.40882110595703
      ],
      "min": [
        -17.35081672668457,
        0.47372186183929443,
        42.40882110595703
      ],
      "type": "VEC3"
    },
    {
      "bufferView": 4,
      "componentType": 5126,
      "count": 24,
      "max": [
        1,
        1,
        1
      ],
      "min": [
        -1,
        -1,
        -1
      ],
      "type": "VEC3"
    },
    {
      "bufferView": 5,
      "componentType": 5125,
      "count": 36,
      "max": [
        23
      ],
      "min": [
        0
      ],
      "type": "SCALAR"
    },
    {
      "bufferView": 6,
      "componentType": 5126,
      "count": 2232,
      "max": [
        48.86997604370117,
        13.495379447937012,
        33.93963623046875
      ],
      "min": [
        14.6654052734375,
        -20.713233947753906,
        -6.151045322418213
      ],
      "type": "VEC3"
    },
    {
      "bufferView": 7,
      "componentType": 5126,
      "count": 2232,
      "max": [
        0.9999992251396179,
        0.9999867081642151,
        0.9972364902496338
      ],
      "min": [
        -0.99996417760849,
        -0.9999997019767761,
        -1
      ],
      "type": "VEC3"
    },
    {
      "bufferView": 8,
      "componentType": 5125,
      "count": 8208,
      "max": [
        2231
      ],
      "min": [
        0
      ],
      "type": "SCALAR"
    },
    {
      "bufferView": 9,
      "componentType": 5126,
      "count": 16156,
      "max": [
        47.09124755859375,
        41.82747268676758,
        82.84652709960938
      ],
      "min": [
        -114.67264556884766,
        -20.713233947753906,
        -57.057281494140625
      ],
      "type": "VEC3"
    },
    {
      "bufferView": 10,
      "componentType": 5126,
      "count": 16156,
      "max": [
        1,
        1,
        1
      ],
      "min": [
        -1,
        -1,
        -1
      ],
      "type": "VEC3"
    },
    {
      "bufferView": 11,
      "componentType": 5125,
      "count": 59712,
      "max": [
        16155
      ],
      "min": [
        0
      ],
      "type": "SCALAR"
    },
    {
      "bufferView": 12,
      "componentType": 5126,
      "count": 1705,
      "max": [
        -34.26275634765625,
        41.87985610961914,
        107.07454681396484
      ],
      "min": [
        -93.97988891601562,
        36.36951446533203,
        43.55409622192383
      ],
      "type": "VEC3"
    },
    {
      "bufferView": 13,
      "componentType": 5126,
      "count": 1705,
      "max": [
        0.9998883605003357,
        1,
        0.9998158812522888
      ],
      "min": [
        -0.9999361038208008,
        -1,
        -0.9997739791870117
      ],
      "type": "VEC3"
    },
    {
      "bufferView": 14,
      "componentType": 5125,
      "count": 6348,
      "max": [
        1704
      ],
      "min": [
        0
      ],
      "type": "SCALAR"
    },
    {
      "bufferView": 15,
      "componentType": 5126,
      "count": 1705,
      "max": [
        28.177221298217773,
        41.87985610961914,
        112.13896179199219
      ],
      "min": [
        -31.5399112701416,
        36.36951446533203,
        48.618507385253906
      ],
      "type": "VEC3"
    },
    {
      "bufferView": 16,
      "componentType": 5126,
      "count": 1705,
      "max": [
        0.9998192191123962,
        1,
        0.9997814297676086
      ],
      "min": [
        -0.9995325803756714,
        -1,
        -0.9997814297676086
      ],
      "type": "VEC3"
    },
    {
      "bufferView": 17,
      "componentType": 5125,
      "count": 6348,
      "max": [
        1704
      ],
      "min": [
        0
      ],
      "type": "SCALAR"
    },
    {
      "bufferView": 18,
      "componentType": 5126,
      "count": 1705,
      "max": [
        78.23724365234375,
        41.87985610961914,
        42.122642517089844
      ],
      "min": [
        18.520111083984375,
        36.36951446533203,
        -21.397809982299805
      ],
      "type": "VEC3"
    },
    {
      "bufferView": 19,
      "componentType": 5126,
      "count": 1705,
      "max": [
        0.9998558163642883,
        1,
        0.9997776746749878
      ],
      "min": [
        -0.9998125433921814,
        -1,
        -0.9998392462730408
      ],
      "type": "VEC3"
    },
    {
      "bufferView": 20,
      "componentType": 5125,
      "count": 6348,
      "max": [
        1704
      ],
      "min": [
        0
      ],
      "type": "SCALAR"
    },
    {
      "bufferView": 21,
      "componentType": 5126,
      "count": 1705,
      "max": [
        28.177221298217773,
        41.87985610961914,
        -17.764850616455078
      ],
      "min": [
        -31.5399112701416,
        36.36951446533203,
        -81.2853012084961
      ],
      "type": "VEC3"
    },
    {
      "bufferView": 22,
      "componentType": 5126,
      "count": 1705,
      "max": [
        0.9999361038208008,
        1,
        0.9997739791870117
      ],
      "min": [
        -0.9998883605003357,
        -1,
        -0.9998158812522888
      ],
      "type": "VEC3"
    },
    {
      "bufferView": 23,
      "componentType": 5125,
      "count": 6348,
      "max": [
        1704
      ],
      "min": [
        0
      ],
      "type": "SCALAR"
    },
    {
      "bufferView": 24,
      "componentType": 5126,
      "count": 1705,
      "max": [
        -34.26275634765625,
        41.87985610961914,
        -22.82926368713379
      ],
      "min": [
        -93.97988891601562,
        36.36951446533203,
        -86.34971618652344
      ],
      "type": "VEC3"
    },
    {
      "bufferView": 25,
      "componentType": 5126,
      "count": 1705,
      "max": [
        0.9995325803756714,
        1,
        0.9997814297676086
      ],
      "min": [
        -0.9998192191123962,
        -1,
        -0.9997814297676086
      ],
      "type": "VEC3"
    },
    {
      "bufferView": 26,
      "componentType": 5125,
      "count": 6348,
      "max": [
        1704
      ],
      "min": [
        0
      ],
      "type": "SCALAR"
    },
    {
      "bufferView": 27,
      "componentType": 5126,
      "count": 1705,
      "max": [
        -84.3227767944336,
        41.87985610961914,
        47.18705368041992
      ],
      "min": [
        -144.0399169921875,
        36.36951446533203,
        -16.333396911621094
      ],
      "type": "VEC3"
    },
    {
      "bufferView": 28,
      "componentType": 5126,
      "count": 1705,
      "max": [
        0.9998125433921814,
        1,
        0.9998392462730408
      ],
      "min": [
        -0.9998558163642883,
        -1,
        -0.9997776746749878
      ],
      "type": "VEC3"
    },
    {
      "bufferView": 29,
      "componentType": 5125,
      "count": 6348,
      "max": [
        1704
      ],
      "min": [
        0
      ],
      "type": "SCALAR"
    },
    {
      "bufferView": 30,
      "componentType": 5126,
      "count": 2378,
      "max": [
        -85.47636413574219,
        8.487399101257324,
        56.08428955078125
      ],
      "min": [
        -109.66870880126953,
        -15.704949378967285,
        46.94028854370117
      ],
      "type": "VEC3"
    },
    {
      "bufferView": 31,
      "componentType": 5126,
      "count": 2378,
      "max": [
        0.9998990893363953,
        0.9998266100883484,
        1
      ],
      "min": [
        -0.999890923500061,
        -0.9997849464416504,
        -1
      ],
      "type": "VEC3"
    },
    {
      "bufferView": 32,
      "componentType": 5125,
      "count": 8286,
      "max": [
        2377
      ],
      "min": [
        0
      ],
      "type": "SCALAR"
    },
    {
      "bufferView": 33,
      "componentType": 5126,
      "count": 2378,
      "max": [
        43.86603927612305,
        8.487399101257324,
        56.07270050048828
      ],
      "min": [
        19.67369270324707,
        -15.704949378967285,
        46.92870330810547
      ],
      "type": "VEC3"
    },
    {
      "bufferView": 34,
      "componentType": 5126,
      "count": 2378,
      "max": [
        0.9998990893363953,
        0.9997849464416504,
        1
      ],
      "min": [
        -0.999890923500061,
        -0.9998266100883484,
        -1
      ],
      "type": "VEC3"
    },
    {
      "bufferView": 35,
      "componentType": 5125,
      "count": 8286,
      "max": [
        2377
      ],
      "min": [
        0
      ],
      "type": "SCALAR"
    },
    {
      "bufferView": 36,
      "componentType": 5126,
      "count": 2378,
      "max": [
        -20.73066520690918,
        30.471473693847656,
        25.06529426574707
      ],
      "min": [
        -45.0720100402832,
        21.327472686767578,
        0.7239497900009155
      ],
      "type": "VEC3"
    },
    {
      "bufferView": 37,
      "componentType": 5126,
      "count": 2378,
      "max": [
        1,
        1,
        1
      ],
      "min": [
        -1,
        -1,
        -0.9999769926071167
      ],
      "type": "VEC3"
    },
    {
      "bufferView": 38,
      "componentType": 5125,
      "count": 8286,
      "max": [
        2377
      ],
      "min": [
        0
      ],
      "type": "SCALAR"
    }
  ],
  "materials": [
    {
      "pbrMetallicRoughness": {
        "metallicFactor": 0,
        "roughnessFactor": 0.30000001192092896
      },
      "doubleSided": true,
      "name": "Mat_1"
    }
  ],
  "meshes": [
    {
      "primitives": [
        {
          "mode": 4,
          "attributes": {
            "POSITION": 0,
            "NORMAL": 1
          },
          "indices": 2,
          "material": 0
        }
      ]
    },
    {
      "primitives": [
        {
          "mode": 4,
          "attributes": {
            "POSITION": 3,
            "NORMAL": 4
          },
          "indices": 5,
          "material": 0
        }
      ]
    },
    {
      "primitives": [
        {
          "mode": 4,
          "attributes": {
            "POSITION": 6,
            "NORMAL": 7
          },
          "indices": 8,
          "material": 0
        }
      ]
    },
    {
      "primitives": [
        {
          "mode": 4,
          "attributes": {
            "POSITION": 9,
            "NORMAL": 10
          },
          "indices": 11,
          "material": 0
        }
      ]
    },
    {
      "primitives": [
        {
          "mode": 4,
          "attributes": {
            "POSITION": 12,
            "NORMAL": 13
          },
          "indices": 14,
          "material": 0
        }
      ]
    },
    {
      "primitives": [
        {
          "mode": 4,
          "attributes": {
            "POSITION": 15,
            "NORMAL": 16
          },
          "indices": 17,
          "material": 0
        }
      ]
    },
    {
      "primitives": [
        {
          "mode": 4,
          "attributes": {
            "POSITION": 18,
            "NORMAL": 19
          },
          "indices": 20,
          "material": 0
        }
      ]
    },
    {
      "primitives": [
        {
          "mode": 4,
          "attributes": {
            "POSITION": 21,
            "NORMAL": 22
          },
          "indices": 23,
          "material": 0
        }
      ]
    },
    {
      "primitives": [
        {
          "mode": 4,
          "attributes": {
            "POSITION": 24,
            "NORMAL": 25
          },
          "indices": 26,
          "material": 0
        }
      ]
    },
    {
      "primitives": [
        {
          "mode": 4,
          "attributes": {
            "POSITION": 27,
            "NORMAL": 28
          },
          "indices": 29,
          "material": 0
        }
      ]
    },
    {
      "primitives": [
        {
          "mode": 4,
          "attributes": {
            "POSITION": 30,
            "NORMAL": 31
          },
          "indices": 32,
          "material": 0
        }
      ]
    },
    {
      "primitives": [
        {
          "mode": 4,
          "attributes": {
            "POSITION": 33,
            "NORMAL": 34
          },
          "indices": 35,
          "material": 0
        }
      ]
    },
    {
      "primitives": [
        {
          "mode": 4,
          "attributes": {
            "POSITION": 36,
            "NORMAL": 37
          },
          "indices": 38,
          "material": 0
        }
      ]
    }
  ]
}